<svg id="ic_about_sharing" xmlns="http://www.w3.org/2000/svg" width="96" height="96" viewBox="0 0 96 96">
  <defs>
    <style>
      .cls-1, .cls-2, .cls-3 {
        fill: #2ec1d2;
      }

      .cls-1 {
        opacity: 0.1;
      }

      .cls-2, .cls-3 {
        fill-rule: evenodd;
      }

      .cls-3 {
        opacity: 0.5;
      }
    </style>
  </defs>
  <circle id="Ellipse_6_copy_2" data-name="Ellipse 6 copy 2" class="cls-1" cx="48" cy="48" r="48"/>
  <path class="cls-2" d="M451.421,795.72a0.371,0.371,0,0,0-.369-0.311h-0.761a0.775,0.775,0,0,1-.518-0.514,6.623,6.623,0,0,0-.563-1.279,0.367,0.367,0,0,1,.055-0.444l0.609-.61a0.376,0.376,0,0,0,.04-0.487,8.174,8.174,0,0,0-1.65-1.657,0.373,0.373,0,0,0-.486.04l-0.611.612a0.365,0.365,0,0,1-.443.054,6.61,6.61,0,0,0-1.822-.713h0v-1.152a0.371,0.371,0,0,0-.312-0.369,7.67,7.67,0,0,0-2.343,0,0.372,0.372,0,0,0-.312.369v1.152h0a6.61,6.61,0,0,0-1.822.713,0.365,0.365,0,0,1-.443-0.054l-0.611-.612a0.373,0.373,0,0,0-.486-0.04,8.174,8.174,0,0,0-1.65,1.657,0.377,0.377,0,0,0,.04.487l0.609,0.61a0.367,0.367,0,0,1,.055.444,6.623,6.623,0,0,0-.563,1.279,0.773,0.773,0,0,1-.518.514h-0.761a0.372,0.372,0,0,0-.369.311,7.852,7.852,0,0,0,0,2.384,0.372,0.372,0,0,0,.369.311h0.761a0.771,0.771,0,0,1,.518.514,6.623,6.623,0,0,0,.563,1.279,0.367,0.367,0,0,1-.055.444l-0.609.61a0.377,0.377,0,0,0-.04.487,8.174,8.174,0,0,0,1.65,1.657,0.374,0.374,0,0,0,.486-0.039l0.611-.613a0.365,0.365,0,0,1,.443-0.054,6.577,6.577,0,0,0,1.822.712h0v1.151a0.372,0.372,0,0,0,.312.37,7.67,7.67,0,0,0,2.343,0,0.372,0.372,0,0,0,.312-0.37v-1.151h0a6.577,6.577,0,0,0,1.822-.712,0.365,0.365,0,0,1,.443.054l0.611,0.613a0.374,0.374,0,0,0,.486.039,8.174,8.174,0,0,0,1.65-1.657,0.376,0.376,0,0,0-.04-0.487l-0.609-.61a0.367,0.367,0,0,1-.055-0.444,6.623,6.623,0,0,0,.563-1.279,0.773,0.773,0,0,1,.518-0.514h0.761a0.371,0.371,0,0,0,.369-0.311A7.852,7.852,0,0,0,451.421,795.72Zm-4.947,1.682a3.095,3.095,0,1,1-3.544-3.553A3.111,3.111,0,0,1,446.474,797.4Z" transform="translate(-374 -768)"/>
  <path id="Shape_18_copy" data-name="Shape 18 copy" class="cls-3" d="M438.5,818.806l-3.487-8.155V809.2a18.872,18.872,0,1,0-31.723,13.84,8.776,8.776,0,0,1,2.587,8.479l-1.941,8.033c-0.294,1.218.054,1.652,0.524,1.652h18.351a0.727,0.727,0,0,0,.711-0.579l1.212-5.833a2.9,2.9,0,0,1,2.842-2.316h4.834a2.606,2.606,0,0,0,2.6-2.609v-9.029h2.154A1.454,1.454,0,0,0,438.5,818.806Zm-12.976-9.275a0.492,0.492,0,0,1-.488.412h-1a1.018,1.018,0,0,0-.685.679,8.778,8.778,0,0,1-.744,1.69,0.485,0.485,0,0,0,.072.586l0.805,0.807a0.5,0.5,0,0,1,.053.643,10.768,10.768,0,0,1-2.18,2.189,0.494,0.494,0,0,1-.642-0.052l-0.808-.809a0.482,0.482,0,0,0-.585-0.072,8.707,8.707,0,0,1-2.408.942h0v1.522a0.489,0.489,0,0,1-.411.488,10.135,10.135,0,0,1-3.1,0,0.489,0.489,0,0,1-.411-0.488v-1.522h0a8.719,8.719,0,0,1-2.408-.942,0.482,0.482,0,0,0-.585.072l-0.808.809a0.494,0.494,0,0,1-.642.052,10.793,10.793,0,0,1-2.18-2.189,0.5,0.5,0,0,1,.053-0.643l0.805-.807a0.483,0.483,0,0,0,.072-0.586,8.775,8.775,0,0,1-.743-1.69,1.02,1.02,0,0,0-.685-0.679h-1.006a0.491,0.491,0,0,1-.487-0.412,10.3,10.3,0,0,1,0-3.149,0.491,0.491,0,0,1,.487-0.412h1.006a1.024,1.024,0,0,0,.685-0.679,8.748,8.748,0,0,1,.743-1.69,0.485,0.485,0,0,0-.072-0.587l-0.805-.806a0.5,0.5,0,0,1-.053-0.643,10.8,10.8,0,0,1,2.18-2.19,0.494,0.494,0,0,1,.642.052l0.808,0.809a0.48,0.48,0,0,0,.585.072,8.744,8.744,0,0,1,2.409-.942v-1.522a0.491,0.491,0,0,1,.411-0.488,10.135,10.135,0,0,1,3.1,0,0.491,0.491,0,0,1,.411.488v1.522a8.738,8.738,0,0,1,2.408.942,0.48,0.48,0,0,0,.585-0.072l0.808-.809a0.494,0.494,0,0,1,.642-0.052,10.773,10.773,0,0,1,2.18,2.19,0.5,0.5,0,0,1-.053.643l-0.805.806a0.486,0.486,0,0,0-.072.587,8.751,8.751,0,0,1,.744,1.69,1.022,1.022,0,0,0,.685.679h1a0.491,0.491,0,0,1,.488.412A10.389,10.389,0,0,1,425.521,809.531Zm-11.22-5.622a4.1,4.1,0,1,0,4.683,4.7A4.11,4.11,0,0,0,414.3,803.909Z" transform="translate(-374 -768)"/>
</svg>
