<svg id="ic_about_simplicity" xmlns="http://www.w3.org/2000/svg" width="96" height="96" viewBox="0 0 96 96">
  <defs>
    <style>
      .cls-1, .cls-2, .cls-3 {
        fill: #2ec1d2;
      }

      .cls-1 {
        opacity: 0.1;
      }

      .cls-2, .cls-3 {
        fill-rule: evenodd;
      }

      .cls-3 {
        opacity: 0.5;
      }
    </style>
  </defs>
  <circle id="Ellipse_6_copy_2" data-name="Ellipse 6 copy 2" class="cls-1" cx="48" cy="48" r="48"/>
  <path class="cls-2" d="M1084.98,823.335l-9.01,11.441a0.683,0.683,0,0,1-.52.255l-10.93.113-3.02.031a8.058,8.058,0,0,1-5.06-1.722l-11.49-9.048a3.355,3.355,0,0,1,4.14-5.28l9.5,7.41a2.667,2.667,0,0,0,1.65.567l6.79-.006a1.674,1.674,0,1,0,0-3.348l-5.69,0a3.348,3.348,0,1,1-.01-6.7l9.35-.009,4.57,0a8.065,8.065,0,0,1,4.96,1.707l4.66,3.642A0.671,0.671,0,0,1,1084.98,823.335Zm5.79,4.556-8.8,11.168a0.669,0.669,0,0,1-.94.112l-2.1-1.657a0.67,0.67,0,0,1-.11-0.941l8.79-11.168a0.669,0.669,0,0,1,.94-0.112l2.11,1.658A0.668,0.668,0,0,1,1090.77,827.891Z" transform="translate(-1014 -768)"/>
  <path id="Shape_21_copy" data-name="Shape 21 copy" class="cls-3" d="M1076.91,810.874l-9.5-7.409a2.667,2.667,0,0,0-1.65-.567l-6.79.006a1.674,1.674,0,1,0,0,3.348l5.69,0a3.348,3.348,0,1,1,.01,6.7l-13.04.012h-0.88a8.037,8.037,0,0,1-4.96-1.707l-4.66-3.642a0.671,0.671,0,0,1-.11-0.942l9.01-11.441a0.683,0.683,0,0,1,.52-0.255l10.93-.113,3.02-.031a8.058,8.058,0,0,1,5.06,1.722l11.49,9.048A3.354,3.354,0,0,1,1076.91,810.874Zm-38.52-6.279a0.669,0.669,0,0,1-.94.112l-2.11-1.657a0.67,0.67,0,0,1-.11-0.941l8.8-11.169a0.67,0.67,0,0,1,.94-0.111l2.1,1.657a0.668,0.668,0,0,1,.11.94Z" transform="translate(-1014 -768)"/>
</svg>
