<svg id="ic_about_positivity" xmlns="http://www.w3.org/2000/svg" width="96" height="96" viewBox="0 0 96 96">
  <defs>
    <style>
      .cls-1, .cls-2, .cls-3 {
        fill: #2ec1d2;
      }

      .cls-1 {
        opacity: 0.1;
      }

      .cls-2, .cls-3 {
        fill-rule: evenodd;
      }

      .cls-2 {
        opacity: 0.5;
      }
    </style>
  </defs>
  <circle id="Ellipse_6_copy_2" data-name="Ellipse 6 copy 2" class="cls-1" cx="48" cy="48" r="48"/>
  <path id="Shape_20_copy" data-name="Shape 20 copy" class="cls-2" d="M1405.56,820.273a3.357,3.357,0,0,0-4.7-.56l-9.5,7.423a2.67,2.67,0,0,1-1.65.57l-6.8.007a1.673,1.673,0,1,1-.01-3.346l5.7-.006a3.347,3.347,0,1,0,0-6.693l-13.05.013h-0.88a8.066,8.066,0,0,0-4.97,1.716l-4.66,3.649a0.67,0.67,0,0,0-.11.941l9.05,11.418a0.652,0.652,0,0,0,.52.254l10.94,0.092,3.02,0.025a8.046,8.046,0,0,0,5.06-1.731l11.49-9.065A3.343,3.343,0,0,0,1405.56,820.273Zm-43.26,5.789a0.669,0.669,0,0,0-.94-0.11l-2.11,1.661a0.668,0.668,0,0,0-.11.94l8.83,11.145a0.669,0.669,0,0,0,.94.11l2.11-1.66a0.668,0.668,0,0,0,.11-0.94Z" transform="translate(-1335 -768)"/>
  <path class="cls-3" d="M1380.7,794.066a1.674,1.674,0,0,0,2.37-2.364l-1.9-1.89a1.67,1.67,0,0,0-2.36,2.363Zm7.8-2.252a1.672,1.672,0,0,0,1.67-1.671V787.47a1.67,1.67,0,1,0-3.34,0v2.673A1.672,1.672,0,0,0,1388.5,791.814Zm6.62,2.74a1.682,1.682,0,0,0,1.18-.489l1.89-1.89a1.673,1.673,0,1,0-2.37-2.363l-1.89,1.89A1.671,1.671,0,0,0,1395.12,794.554Zm-14.31,4.945a1.665,1.665,0,0,0-1.67-1.67h-2.67a1.671,1.671,0,0,0,0,3.341h2.67A1.666,1.666,0,0,0,1380.81,799.5Zm15.49,5.435a1.673,1.673,0,0,0-2.37,2.363l1.89,1.89a1.673,1.673,0,1,0,2.37-2.363Zm4.23-7.105h-2.67a1.671,1.671,0,0,0,0,3.341h2.67A1.671,1.671,0,0,0,1400.53,797.829Zm-12.03-3.676a5.347,5.347,0,1,0,5.35,5.346A5.351,5.351,0,0,0,1388.5,794.153Zm0,13.032a1.672,1.672,0,0,0-1.67,1.671v2.673a1.67,1.67,0,1,0,3.34,0v-2.673A1.672,1.672,0,0,0,1388.5,807.185Zm-7.8-2.252-1.89,1.89a1.671,1.671,0,0,0,1.18,2.853,1.648,1.648,0,0,0,1.18-.489l1.9-1.89A1.674,1.674,0,0,0,1380.7,804.933Z" transform="translate(-1335 -768)"/>
</svg>
