<svg id="ic_about_curiousity" xmlns="http://www.w3.org/2000/svg" width="96" height="96" viewBox="0 0 96 96">
  <defs>
    <style>
      .cls-1, .cls-2, .cls-3 {
        fill: #2ec1d2;
      }

      .cls-1 {
        opacity: 0.1;
      }

      .cls-2, .cls-3 {
        fill-rule: evenodd;
      }

      .cls-3 {
        opacity: 0.5;
      }
    </style>
  </defs>
  <circle id="Ellipse_6_copy_2" data-name="Ellipse 6 copy 2" class="cls-1" cx="48" cy="48" r="48"/>
  <path class="cls-2" d="M746.255,825.1l-5.626-12.633a2.132,2.132,0,0,0-1.094-1.094L726.9,805.745a1.731,1.731,0,0,0-2.157,2.157l5.626,12.633a2.132,2.132,0,0,0,1.094,1.094l12.633,5.626A1.731,1.731,0,0,0,746.255,825.1Zm-10.755-6a2.6,2.6,0,1,1,2.6-2.6A2.6,2.6,0,0,1,735.5,819.1Zm0,8.78a2.008,2.008,0,0,0-2.008,2.008v1.338a2.008,2.008,0,0,0,4.016,0v-1.338A2.008,2.008,0,0,0,735.5,827.877Zm-12.715-12.715h-1.339a2.008,2.008,0,1,0,0,4.015h1.339A2.008,2.008,0,0,0,722.785,815.162ZM735.5,801.108a2.007,2.007,0,0,0-2.008,2.007v1.339a2.008,2.008,0,0,0,4.016,0v-1.339A2.007,2.007,0,0,0,735.5,801.108Zm14.054,14.054h-1.339a2.008,2.008,0,0,0,0,4.015h1.339A2.008,2.008,0,1,0,749.554,815.162Z" transform="translate(-687 -768)"/>
  <path id="Shape_23_copy" data-name="Shape 23 copy" class="cls-3" d="M735.5,790.4a26.1,26.1,0,1,0,26.1,26.1A26.129,26.129,0,0,0,735.5,790.4Zm0,45.508A19.408,19.408,0,1,1,754.908,816.5,19.431,19.431,0,0,1,735.5,835.908Z" transform="translate(-687 -768)"/>
</svg>
