<svg id="ic_contact_phone" xmlns="http://www.w3.org/2000/svg" width="101" height="101" viewBox="0 0 101 101">
  <defs>
    <style>
      .cls-1 {
        fill: #699e2e;
        fill-opacity: 0;
        stroke: #000;
        stroke-linejoin: round;
        stroke-opacity: 0.1;
        stroke-width: 1px;
      }

      .cls-2 {
        fill: #2dc0d2;
        fill-rule: evenodd;
      }
    </style>
  </defs>
  <circle class="cls-1" cx="50.5" cy="50.5" r="50"/>
  <path id="dialer" class="cls-2" d="M313,765h1a1,1,0,0,1,1,1v1a1,1,0,0,1-1,1h-1a1,1,0,0,1-1-1v-1A1,1,0,0,1,313,765Zm0,4h1a1,1,0,0,1,1,1v1a1,1,0,0,1-1,1h-1a1,1,0,0,1-1-1v-1A1,1,0,0,1,313,769Zm0,4h1a1,1,0,0,1,1,1v1a1,1,0,0,1-1,1h-1a1,1,0,0,1-1-1v-1A1,1,0,0,1,313,773Zm4-8h1a1,1,0,0,1,1,1v1a1,1,0,0,1-1,1h-1a1,1,0,0,1-1-1v-1A1,1,0,0,1,317,765Zm4,0h1a1,1,0,0,1,1,1v1a1,1,0,0,1-1,1h-1a1,1,0,0,1-1-1v-1A1,1,0,0,1,321,765Zm-4,4h1a1,1,0,0,1,1,1v1a1,1,0,0,1-1,1h-1a1,1,0,0,1-1-1v-1A1,1,0,0,1,317,769Zm4,0h1a1,1,0,0,1,1,1v1a1,1,0,0,1-1,1h-1a1,1,0,0,1-1-1v-1A1,1,0,0,1,321,769Zm-4,4h1a1,1,0,0,1,1,1v1a1,1,0,0,1-1,1h-1a1,1,0,0,1-1-1v-1A1,1,0,0,1,317,773Zm4,0h1a1,1,0,0,1,1,1v1a1,1,0,0,1-1,1h-1a1,1,0,0,1-1-1v-1A1,1,0,0,1,321,773Zm-4,4h1a1,1,0,0,1,1,1v1a1,1,0,0,1-1,1h-1a1,1,0,0,1-1-1v-1A1,1,0,0,1,317,777Z" transform="translate(-266.5 -721.5)"/>
</svg>
