<svg id="ic_methodology_inspire" xmlns="http://www.w3.org/2000/svg" width="96" height="96" viewBox="0 0 96 96">
  <defs>
    <style>
      .cls-1 {
        fill: #fff;
      }

      .cls-2, .cls-3 {
        fill: #2ec1d2;
        fill-rule: evenodd;
      }

      .cls-3 {
        opacity: 0.5;
      }
    </style>
  </defs>
  <circle id="Ellipse_6_copy_2" data-name="Ellipse 6 copy 2" class="cls-1" cx="48" cy="48" r="48"/>
  <path class="cls-2" d="M1402.34,2052.73a0.656,0.656,0,0,1,0-.87l2.69-3.15a0.674,0.674,0,0,0-.51-1.11h-12.58a0.67,0.67,0,0,0-.67.67v8.05a0.67,0.67,0,0,0,.67.67h12.58a0.668,0.668,0,0,0,.51-1.1Z" transform="translate(-1339 -2028)"/>
  <path id="Shape_28_copy" data-name="Shape 28 copy" class="cls-3" d="M1412.34,2094.46l-18.57-32.9a2.516,2.516,0,0,0-4.41.05l-7.6,14.31,4.07,7.14a3.366,3.366,0,0,1-.57,4.07c-0.47-.07-0.59-0.09-1.05-0.16l-8-14.05a2.509,2.509,0,0,0-4.41.08l-11.21,21.47a0.638,0.638,0,0,0,.56.93h50.64A0.634,0.634,0,0,0,1412.34,2094.46Z" transform="translate(-1339 -2028)"/>
</svg>
