<svg id="ic_methodology_thriving" xmlns="http://www.w3.org/2000/svg" width="96" height="96" viewBox="0 0 96 96">
  <defs>
    <style>
      .cls-1 {
        fill: #fff;
      }

      .cls-2, .cls-3 {
        fill: #2ec1d2;
        fill-rule: evenodd;
      }

      .cls-2 {
        opacity: 0.5;
      }
    </style>
  </defs>
  <circle id="Ellipse_6_copy_2" data-name="Ellipse 6 copy 2" class="cls-1" cx="48" cy="48" r="48"/>
  <path class="cls-2" d="M728.289,2090.13l-7.423-7.42a0.526,0.526,0,0,0-.743-0.01c-0.4.39-.958,0.94-1.156,1.14a23.807,23.807,0,0,0-6.742,14.93,23.811,23.811,0,0,0,14.938-6.74c0.2-.2.746-0.75,1.135-1.15A0.538,0.538,0,0,0,728.289,2090.13Z" transform="translate(-688 -2028)"/>
  <path id="Shape_26_copy" data-name="Shape 26 copy" class="cls-3" d="M756.6,2052.19l-5.8.94a23.774,23.774,0,0,0-14.567,7.5l-6.5,7.13-8.862-.52a1.344,1.344,0,0,0-1.192.59l-4.459,6.66a1.333,1.333,0,0,0,.559,1.96l6.289,2.86,9.621,9.62,2.862,6.3a1.338,1.338,0,0,0,1.962.56l6.758-4.48a1.351,1.351,0,0,0,.6-1.21l-0.591-8.86,7.1-6.47a23.8,23.8,0,0,0,7.5-14.57l0.942-5.8A1.923,1.923,0,0,0,756.6,2052.19Zm-10.69,18.59a4.023,4.023,0,1,1,0-5.69A4.026,4.026,0,0,1,745.913,2070.78Z" transform="translate(-688 -2028)"/>
</svg>
