<svg id="ic_methodology_leadership" xmlns="http://www.w3.org/2000/svg" width="96" height="96" viewBox="0 0 96 96">
  <defs>
    <style>
      .cls-1 {
        fill: #fff;
      }

      .cls-2, .cls-3 {
        fill: #2ec1d2;
        fill-rule: evenodd;
      }

      .cls-3 {
        opacity: 0.5;
      }
    </style>
  </defs>
  <circle id="Ellipse_6_copy_2" data-name="Ellipse 6 copy 2" class="cls-1" cx="48" cy="48" r="48"/>
  <path class="cls-2" d="M1042.63,2059.84a0.669,0.669,0,0,0-.94.12l-10.44,13.4a0.677,0.677,0,0,0,.12.94l5.12,3.97a0.661,0.661,0,0,0,.94-0.12l10.43-13.4a0.669,0.669,0,0,0-.11-0.94Zm-4.91,13.97a1.468,1.468,0,1,1-.26-2.06A1.476,1.476,0,0,1,1037.72,2073.81Zm38.82,12.99-11.47-8.94-2.09,1.91c-2.95,2.65-5.61,3.36-7.62,3.36a8.624,8.624,0,0,1-1.41-.12,7.822,7.822,0,0,1-5.47-3.75,3.921,3.921,0,0,1,.73-5.06l8.24-7.48a5.354,5.354,0,0,0-7.5.97l-8.04,10.37a4,4,0,0,0-.82,2.96l0.52,4.22a4.024,4.024,0,0,0,1.51,2.67l14.1,10.97a2.154,2.154,0,0,0,2.92-.24l0.64-.69a2.162,2.162,0,0,0-.21-3.12l2.37,1.98a2.152,2.152,0,0,0,1.39.51,2.18,2.18,0,0,0,1.5-.61l0.73-.7a2.15,2.15,0,0,0-.12-3.21l1.75,1.45a2.178,2.178,0,0,0,2.9-.11l0.65-.63a2.17,2.17,0,0,0-.1-3.18l1.16,1a2.12,2.12,0,0,0,1.41.53,2.168,2.168,0,0,0,1.66-.78l1-1.19A2.15,2.15,0,0,0,1076.54,2086.8Z" transform="translate(-1013 -2028)"/>
  <path id="Shape_27_copy" data-name="Shape 27 copy" class="cls-3" d="M1091.77,2070.07l-11.18-11.85a0.677,0.677,0,0,0-.95-0.03l-4.7,4.42a0.655,0.655,0,0,0-.02.94l11.18,11.85a0.664,0.664,0,0,0,.94.03l4.7-4.42A0.664,0.664,0,0,0,1091.77,2070.07Zm-4.08,1.34a1.461,1.461,0,1,1,.06-2.06A1.467,1.467,0,0,1,1087.69,2071.41Zm-5.54,4.69-9.69-9.86a2.679,2.679,0,0,0-1.56-.78l-4.96-.65a2.729,2.729,0,0,0-2.15.67l-1.16,1.06-11.16,10.13a0.622,0.622,0,0,0-.15.82l0.07,0.12a4.538,4.538,0,0,0,3.13,2.11c1.93,0.32,4.08-.51,6.21-2.43l4.17-3.81,13.12,10.23,4.09-3.83A2.671,2.671,0,0,0,1082.15,2076.1Z" transform="translate(-1013 -2028)"/>
</svg>
