<svg id="ic_methodology_motivate" xmlns="http://www.w3.org/2000/svg" width="96" height="96" viewBox="0 0 96 96">
  <defs>
    <style>
      .cls-1 {
        fill: #fff;
      }

      .cls-2, .cls-3 {
        fill: #2ec1d2;
        fill-rule: evenodd;
      }

      .cls-3 {
        opacity: 0.5;
      }
    </style>
  </defs>
  <circle id="Ellipse_6_copy_2" data-name="Ellipse 6 copy 2" class="cls-1" cx="48" cy="48" r="48"/>
  <path class="cls-2" d="M428.173,2062.89h-1.65a0.988,0.988,0,0,1-.665-0.65,8.469,8.469,0,0,0-.554-1.33,0.95,0.95,0,0,1,.15-1.12l1-1a0.944,0.944,0,0,0,0-1.34l-1.346-1.35a0.955,0.955,0,0,0-1.346,0l-1,1a0.956,0.956,0,0,1-1.123.15,7.833,7.833,0,0,0-1.331-.55,0.976,0.976,0,0,1-.7-0.92v-1.39a0.947,0.947,0,0,0-.952-0.95h-1.9a0.947,0.947,0,0,0-.952.95v1.39a0.974,0.974,0,0,1-.7.92,7.867,7.867,0,0,0-1.331.55,0.956,0.956,0,0,1-1.123-.15l-1-1a0.955,0.955,0,0,0-1.346,0l-1.346,1.35a0.946,0.946,0,0,0,0,1.34l1,1a0.949,0.949,0,0,1,.149,1.12,8.469,8.469,0,0,0-.554,1.33,0.988,0.988,0,0,1-.665.65h-1.65a0.954,0.954,0,0,0-.951.95v1.95a0.954,0.954,0,0,0,.951.95h1.65a0.988,0.988,0,0,1,.665.65,8.469,8.469,0,0,0,.554,1.33,0.947,0.947,0,0,1-.149,1.12l-1,1a0.946,0.946,0,0,0,0,1.34l1.346,1.35a0.955,0.955,0,0,0,1.346,0l1-1a0.956,0.956,0,0,1,1.123-.15,7.867,7.867,0,0,0,1.331.55,0.974,0.974,0,0,1,.7.92v1.39a0.947,0.947,0,0,0,.952.95h1.9a0.947,0.947,0,0,0,.952-0.95v-1.39a0.976,0.976,0,0,1,.7-0.92,7.833,7.833,0,0,0,1.331-.55,0.956,0.956,0,0,1,1.123.15l1,1a0.955,0.955,0,0,0,1.346,0l1.346-1.35a0.944,0.944,0,0,0,0-1.34l-1-1a0.948,0.948,0,0,1-.15-1.12,8.469,8.469,0,0,0,.554-1.33,0.988,0.988,0,0,1,.665-0.65h1.65a0.954,0.954,0,0,0,.951-0.95v-1.95A0.954,0.954,0,0,0,428.173,2062.89Zm-10.47,5.89a3.965,3.965,0,1,1,3.97-3.96A3.97,3.97,0,0,1,417.7,2068.78Z" transform="translate(-364 -2028)"/>
  <path id="Shape_29_copy" data-name="Shape 29 copy" class="cls-3" d="M434.561,2082.47h0a3.359,3.359,0,0,0-4.706-.56l-9.494,7.43a2.8,2.8,0,0,1-1.652.57h-6.8a1.67,1.67,0,1,1,0-3.34l5.7-.01a3.345,3.345,0,1,0-.006-6.69l-13.051.01h-0.882a8.061,8.061,0,0,0-4.967,1.72l-4.656,3.65a0.666,0.666,0,0,0-.112.94l9.045,11.42a0.692,0.692,0,0,0,.521.25l10.942,0.09,3.025,0.03a8.124,8.124,0,0,0,5.059-1.73l11.488-9.07A3.349,3.349,0,0,0,434.561,2082.47Zm-43.263,5.79a0.67,0.67,0,0,0-.941-0.11l-2.105,1.66a0.669,0.669,0,0,0-.11.94l8.83,11.15a0.671,0.671,0,0,0,.942.11l2.1-1.66a0.668,0.668,0,0,0,.11-0.94Z" transform="translate(-364 -2028)"/>
</svg>
