<svg id="ic_services_assessment" xmlns="http://www.w3.org/2000/svg" width="53.378" height="48.18" viewBox="0 0 53.378 48.18">
  <defs>
    <style>
      .cls-1, .cls-2 {
        fill: #2ec1d2;
        fill-rule: evenodd;
      }

      .cls-1 {
        opacity: 0.5;
      }
    </style>
  </defs>
  <path class="cls-1" d="M985.2,2422.47a0.673,0.673,0,0,0-.636-0.46h-3.276a10.487,10.487,0,0,0-10.483,10.48v4.66a1.561,1.561,0,0,0,1.56,1.56h17.206a0.672,0.672,0,0,0,.636-0.88Zm8.895-30.07a12.855,12.855,0,1,0,12.86,12.86A12.861,12.861,0,0,0,994.09,2392.4Zm0,29.98a2,2,0,0,0-2.007,2v10.71a2.008,2.008,0,1,0,4.015,0v-10.71A2,2,0,0,0,994.09,2422.38Z" transform="translate(-970.812 -2392.41)"/>
  <path id="Shape_9_copy" data-name="Shape 9 copy" class="cls-2" d="M1020.93,2424.21c-0.57-1.38.64-3.99-.4-5.03s-3.65.17-5.03-.4c-1.34-.55-2.32-3.27-3.85-3.27s-2.51,2.72-3.84,3.27c-1.38.57-3.99-.64-5.03,0.4s0.17,3.65-.4,5.03c-0.56,1.33-3.274,2.31-3.274,3.84s2.714,2.51,3.274,3.85c0.57,1.38-.64,3.99.4,5.03s3.65-.17,5.03.4c1.33,0.55,2.31,3.27,3.84,3.27s2.51-2.72,3.85-3.27c1.38-.57,3.99.64,5.03-0.4s-0.17-3.65.4-5.03c0.55-1.34,3.27-2.32,3.27-3.85S1021.48,2425.54,1020.93,2424.21Zm-9.28,11.21a2.01,2.01,0,1,1,2.01-2.01A2.01,2.01,0,0,1,1011.65,2435.42Zm2.01-8.37a2.005,2.005,0,1,1-4.01,0v-4.81a2.005,2.005,0,1,1,4.01,0v4.81Z" transform="translate(-970.812 -2392.41)"/>
</svg>
