<svg id="ic_services_workshops" xmlns="http://www.w3.org/2000/svg" width="42.409" height="52.62" viewBox="0 0 42.409 52.62">
  <defs>
    <style>
      .cls-1, .cls-2 {
        fill: #2ec1d2;
        fill-rule: evenodd;
      }

      .cls-2 {
        opacity: 0.5;
      }
    </style>
  </defs>
  <path class="cls-1" d="M1000.26,2247.28h-0.06a1.985,1.985,0,0,0-1.919,1.98v23.53a2.01,2.01,0,1,0,4.019,0v-23.53A1.979,1.979,0,0,0,1000.26,2247.28Zm13.46-17.61a0.926,0.926,0,0,1,0-1.21l3.75-4.38a0.932,0.932,0,0,0-.71-1.54H999.213a0.933,0.933,0,0,0-.932.93v11.19a0.933,0.933,0,0,0,.932.93h17.547a0.932,0.932,0,0,0,.71-1.54Z" transform="translate(-975.281 -2222.19)"/>
  <path id="Shape_7_copy" data-name="Shape 7 copy" class="cls-2" d="M985.058,2234.83a6.315,6.315,0,1,0-6.318-6.31A6.311,6.311,0,0,0,985.058,2234.83Zm15.9,3.79H980.407a2.68,2.68,0,0,0-2.635,2.19l-2.454,13.18a2.684,2.684,0,0,0,.427,2.01l3.368,4.89a2.7,2.7,0,0,1,.464,1.31l0.816,10.13a2.679,2.679,0,0,0,2.672,2.47h3.63a2.68,2.68,0,0,0,2.672-2.47l0.833-10.34a2.655,2.655,0,0,1,.26-0.96l0.852-1.76a2.662,2.662,0,0,0,.268-1.17v-14.12h9.38A2.68,2.68,0,0,0,1000.96,2238.62Z" transform="translate(-975.281 -2222.19)"/>
</svg>
