<svg id="ic_services_consulting" xmlns="http://www.w3.org/2000/svg" width="47.31" height="49.1" viewBox="0 0 47.31 49.1">
  <defs>
    <style>
      .cls-1, .cls-2 {
        fill: #2ec1d2;
        fill-rule: evenodd;
      }

      .cls-2 {
        opacity: 0.5;
      }
    </style>
  </defs>
  <path class="cls-1" d="M996.16,2564.4a11,11,0,0,0-9.042,9,10.3,10.3,0,0,0,2.834,8.43,6.59,6.59,0,0,1,1.854,4.6h0a1.588,1.588,0,0,0,1.587,1.59h7.937a1.588,1.588,0,0,0,1.59-1.59,6.52,6.52,0,0,1,1.81-4.56A10.317,10.317,0,0,0,996.16,2564.4Zm6.12,11.81-6.975,6.36a0.477,0.477,0,0,1-.778-0.5l1.486-4.46a0.479,0.479,0,0,0-.454-0.63h-2.79a0.477,0.477,0,0,1-.323-0.83l6.973-6.37a0.481,0.481,0,0,1,.781.5l-1.489,4.46a0.478,0.478,0,0,0,.453.63h2.786A0.485,0.485,0,0,1,1002.28,2576.21Z" transform="translate(-969 -2564.31)"/>
  <path id="Shape_8_copy" data-name="Shape 8 copy" class="cls-2" d="M1015.56,2593.68h0a3.364,3.364,0,0,0-4.71-.56l-9.49,7.45a2.726,2.726,0,0,1-1.65.57h-6.8a1.675,1.675,0,1,1,0-3.35l5.7-.01a3.355,3.355,0,0,0-.006-6.71l-13.051.02h-0.882a8.059,8.059,0,0,0-4.966,1.72l-4.657,3.66a0.667,0.667,0,0,0-.112.94l9.046,11.45a0.688,0.688,0,0,0,.52.25l10.942,0.09,3.025,0.03a8.064,8.064,0,0,0,5.057-1.74l11.49-9.09A3.357,3.357,0,0,0,1015.56,2593.68Zm-43.262,5.81a0.67,0.67,0,0,0-.941-0.11l-2.105,1.66a0.669,0.669,0,0,0-.11.94l8.83,11.18a0.671,0.671,0,0,0,.942.11l2.1-1.67a0.669,0.669,0,0,0,.111-0.94Z" transform="translate(-969 -2564.31)"/>
</svg>
